<svg xmlns="http://www.w3.org/2000/svg" width="150" height="18" viewBox="0 0 150 18">
    <g fill="none">
        <path fill="#000" d="M39.827 8.75H36.22V4.054h3.546c1.744 0 2.826.783 2.826 2.319 0 1.535-1.022 2.379-2.765 2.379zm2.915 2.56c2.15-.713 3.457-2.753 3.457-5.059 0-.95-.314-2.568-1.263-3.584A6.487 6.487 0 0 0 40.067.891h-7.424v16.29h3.577v-5.269h2.765l3.547 5.21h4.178l-3.968-5.812zm17.027-.996l-2.164-5.298-2.163 5.298h4.327zm-36.182.181l-2.164-5.299-2.164 5.3h4.328zM99.407.891v3.222h-4.959v13.005h-3.575V4.113h-4.808V.89h13.342zm-40.06-.18l6.973 16.407h-3.756l-1.503-3.642H54.18l-1.503 3.642H49.04L56.012.711h3.336zm82.681.18v12.946l7.964.03v3.312h-11.69V.89h3.726zm-62.305 9.995l-.09-9.995h3.426v16.227h-3.005L72.24 6.762v10.417h-3.516V.89h3.306l7.693 9.995zM13.61.891v3.222H8.651v13.096H5.075V4.203H.116V.89H13.61zm9.557 0L30.138 17.3h-3.756l-1.503-3.643h-6.882l-1.503 3.643h-3.636L19.83.89h3.336z"/>
        <path fill="#FF272C" d="M126.952 14.356a5.19 5.19 0 0 1-1.284-.162c-2.537-.645-4.619-2.548-5.38-5.058v-.12a8.556 8.556 0 0 1 4.869-4.757 5.187 5.187 0 0 1 1.795-.32c2.852 0 5.199 2.35 5.199 5.208 0 2.857-2.347 5.209-5.2 5.209zm-10.788-5.22c-.76 2.51-2.842 4.413-5.379 5.058-.42.107-.851.162-1.284.162-2.852 0-5.2-2.352-5.2-5.209 0-2.857 2.348-5.208 5.2-5.208.612 0 1.22.108 1.795.32a8.554 8.554 0 0 1 4.868 4.757v.12zM126.995.118a8.844 8.844 0 0 0-3.01.529 11.755 11.755 0 0 0-5.76 4.379 11.747 11.747 0 0 0-5.757-4.38 8.847 8.847 0 0 0-3.01-.528c-4.864 0-8.866 4.01-8.866 8.882s4.002 8.882 8.865 8.882c.516 0 1.03-.046 1.538-.135l.631-.15a12.504 12.504 0 0 0 6.6-4.802 12.507 12.507 0 0 0 6.6 4.801l.631.15a8.87 8.87 0 0 0 1.538.136c4.863 0 8.865-4.01 8.865-8.882S131.858.118 126.995.118z"/>
    </g>
</svg>
